<svg width="11" height="12" viewBox="0 0 11 12" fill="none" xmlns="http://www.w3.org/2000/svg">
<g clip-path="url(#clip0_1_1000)">
<path d="M5.41353 5.95286C5.43306 5.88125 5.42004 5.79987 5.37446 5.70872C5.3354 5.6371 5.28006 5.56224 5.20845 5.48411L1.21431 1.49974C1.11014 1.39557 0.986442 1.34349 0.843213 1.34349C0.699984 1.34349 0.577913 1.39557 0.477002 1.49974C0.37609 1.6039 0.325635 1.7276 0.325635 1.87083C0.325635 2.01406 0.374463 2.13776 0.472119 2.24192L4.28071 5.94309L0.472119 9.65403C0.380973 9.73867 0.32889 9.84283 0.315869 9.96653C0.302848 10.0902 0.330518 10.2058 0.398877 10.3132C0.467236 10.4206 0.563265 10.4906 0.686963 10.5232C0.810661 10.5557 0.927848 10.5492 1.03853 10.5036C1.10363 10.4776 1.16222 10.4385 1.21431 10.3865L5.20845 6.40208C5.28006 6.32395 5.33215 6.25559 5.3647 6.197C5.41027 6.10585 5.42655 6.02448 5.41353 5.95286ZM10.101 5.48411L6.10688 1.49974C6.00272 1.39557 5.87902 1.34349 5.73579 1.34349C5.59256 1.34349 5.47049 1.39557 5.36958 1.49974C5.26867 1.6039 5.21821 1.7276 5.21821 1.87083C5.21821 2.01406 5.26704 2.13776 5.3647 2.24192L9.17329 5.95286L5.3647 9.64427C5.27355 9.73541 5.22147 9.84283 5.20845 9.96653C5.19543 10.0902 5.22472 10.2042 5.29634 10.3083C5.36795 10.4125 5.46398 10.4825 5.58442 10.5183C5.70487 10.5541 5.82043 10.5492 5.9311 10.5036C5.99621 10.4776 6.05155 10.4385 6.09712 10.3865L10.101 6.41184C10.1726 6.3207 10.2247 6.24908 10.2573 6.197C10.3028 6.11237 10.3191 6.03099 10.3061 5.95286C10.3387 5.81614 10.2703 5.65989 10.101 5.48411Z" fill="#3E5765"/>
</g>
<defs>
<clipPath id="clip0_1_1000">
<rect width="10" height="10.5" fill="white" transform="matrix(1 0 0 -1 0.312744 11.1931)"/>
</clipPath>
</defs>
</svg>
