<svg width="830" height="173" viewBox="0 0 830 173" fill="none" xmlns="http://www.w3.org/2000/svg">
<path d="M0.665572 12.8508V11.7741H8.18262V12.8508H5.03094V21.7969H3.81725V12.8508H0.665572ZM11.8628 21.9535C11.1842 21.9535 10.5888 21.792 10.0766 21.469C9.56759 21.146 9.16956 20.6941 8.88245 20.1134C8.5986 19.5326 8.45668 18.854 8.45668 18.0775C8.45668 17.2945 8.5986 16.611 8.88245 16.027C9.16956 15.4429 9.56759 14.9894 10.0766 14.6664C10.5888 14.3435 11.1842 14.182 11.8628 14.182C12.5415 14.182 13.1353 14.3435 13.6442 14.6664C14.1565 14.9894 14.5545 15.4429 14.8383 16.027C15.1254 16.611 15.269 17.2945 15.269 18.0775C15.269 18.854 15.1254 19.5326 14.8383 20.1134C14.5545 20.6941 14.1565 21.146 13.6442 21.469C13.1353 21.792 12.5415 21.9535 11.8628 21.9535ZM11.8628 20.916C12.3783 20.916 12.8025 20.7838 13.1353 20.5196C13.468 20.2553 13.7144 19.9078 13.8742 19.4772C14.0341 19.0465 14.114 18.5799 14.114 18.0775C14.114 17.5751 14.0341 17.1069 13.8742 16.673C13.7144 16.239 13.468 15.8883 13.1353 15.6208C12.8025 15.3532 12.3783 15.2195 11.8628 15.2195C11.3473 15.2195 10.9232 15.3532 10.5904 15.6208C10.2576 15.8883 10.0113 16.239 9.85144 16.673C9.69157 17.1069 9.61164 17.5751 9.61164 18.0775C9.61164 18.5799 9.69157 19.0465 9.85144 19.4772C10.0113 19.9078 10.2576 20.2553 10.5904 20.5196C10.9232 20.7838 11.3473 20.916 11.8628 20.916ZM19.8705 21.9535C19.2441 21.9535 18.6911 21.7952 18.2115 21.4788C17.7319 21.159 17.3567 20.7088 17.0859 20.1281C16.8151 19.544 16.6797 18.854 16.6797 18.0579C16.6797 17.2684 16.8151 16.5832 17.0859 16.0025C17.3567 15.4217 17.7335 14.9731 18.2164 14.6567C18.6992 14.3402 19.2571 14.182 19.8901 14.182C20.3795 14.182 20.7661 14.2635 21.0499 14.4266C21.337 14.5865 21.5556 14.7692 21.7057 14.9748C21.8591 15.177 21.9781 15.3434 22.063 15.4739H22.1608V11.7741H23.3158V21.7969H22.2V20.6419H22.063C21.9781 20.7789 21.8574 20.9519 21.7008 21.1607C21.5442 21.3662 21.3207 21.5505 21.0304 21.7137C20.74 21.8735 20.3534 21.9535 19.8705 21.9535ZM20.0271 20.916C20.4904 20.916 20.8819 20.7953 21.2016 20.5538C21.5214 20.3091 21.7644 19.9714 21.9308 19.5408C22.0972 19.1069 22.1804 18.606 22.1804 18.0384C22.1804 17.4772 22.0989 16.9862 21.9357 16.5653C21.7726 16.1411 21.5312 15.8116 21.2114 15.5767C20.8917 15.3385 20.4969 15.2195 20.0271 15.2195C19.5377 15.2195 19.1299 15.3451 18.8036 15.5963C18.4806 15.8442 18.2376 16.1819 18.0744 16.6093C17.9146 17.0335 17.8346 17.5098 17.8346 18.0384C17.8346 18.5734 17.9162 19.0595 18.0793 19.4967C18.2457 19.9307 18.4904 20.2765 18.8134 20.5342C19.1397 20.7887 19.5442 20.916 20.0271 20.916ZM27.8035 21.9731C27.3272 21.9731 26.8949 21.8833 26.5066 21.7039C26.1184 21.5212 25.8101 21.2585 25.5817 20.916C25.3533 20.5701 25.2391 20.1525 25.2391 19.6631C25.2391 19.2325 25.3239 18.8834 25.4936 18.6158C25.6633 18.345 25.89 18.133 26.1739 17.9796C26.4577 17.8263 26.7709 17.7121 27.1135 17.6371C27.4593 17.5587 27.8068 17.4968 28.1559 17.4511C28.6127 17.3924 28.983 17.3483 29.2668 17.3189C29.5539 17.2863 29.7627 17.2325 29.8932 17.1574C30.027 17.0824 30.0939 16.9519 30.0939 16.7659V16.7268C30.0939 16.2439 29.9617 15.8687 29.6975 15.6012C29.4365 15.3337 29.0401 15.1999 28.5082 15.1999C27.9569 15.1999 27.5246 15.3206 27.2114 15.562C26.8982 15.8035 26.6779 16.0612 26.5507 16.3353L25.4544 15.9438C25.6502 15.487 25.9112 15.1314 26.2375 14.8769C26.567 14.6191 26.9259 14.4397 27.3141 14.3386C27.7056 14.2342 28.0906 14.182 28.4691 14.182C28.7105 14.182 28.9879 14.2113 29.3011 14.27C29.6175 14.3255 29.9226 14.4413 30.2162 14.6175C30.5131 14.7937 30.7594 15.0596 30.9552 15.4152C31.151 15.7708 31.2488 16.2472 31.2488 16.8442V21.7969H30.0939V20.7789H30.0351C29.9568 20.9421 29.8263 21.1166 29.6436 21.3026C29.4609 21.4886 29.2179 21.6468 28.9144 21.7773C28.611 21.9078 28.2407 21.9731 27.8035 21.9731ZM27.9797 20.9355C28.4365 20.9355 28.8215 20.8458 29.1347 20.6664C29.4511 20.4869 29.6893 20.2553 29.8492 19.9714C30.0123 19.6876 30.0939 19.3891 30.0939 19.0759V18.0188C30.0449 18.0775 29.9373 18.1313 29.7709 18.1803C29.6077 18.226 29.4185 18.2667 29.2032 18.3026C28.9911 18.3352 28.7839 18.3646 28.5817 18.3907C28.3826 18.4136 28.2211 18.4331 28.0972 18.4494C27.797 18.4886 27.5164 18.5522 27.2554 18.6403C26.9977 18.7251 26.7889 18.854 26.629 19.0269C26.4724 19.1966 26.3941 19.4282 26.3941 19.7219C26.3941 20.1232 26.5425 20.4266 26.8394 20.6321C27.1396 20.8344 27.5197 20.9355 27.9797 20.9355ZM33.8316 24.6158C33.6358 24.6158 33.4613 24.5995 33.308 24.5668C33.1546 24.5375 33.0486 24.5081 32.9898 24.4787L33.2835 23.4608C33.5641 23.5326 33.812 23.5587 34.0274 23.5391C34.2427 23.5195 34.4335 23.4233 34.5999 23.2504C34.7696 23.0807 34.9246 22.805 35.0649 22.4233L35.2802 21.836L32.5005 14.2798H33.7533L35.8283 20.27H35.9066L37.9816 14.2798H39.2345L36.0436 22.8931C35.9001 23.2814 35.7223 23.6027 35.5102 23.8572C35.2981 24.115 35.0518 24.3058 34.7712 24.4298C34.4939 24.5538 34.1807 24.6158 33.8316 24.6158ZM42.2614 11.7741V12.6551C42.2614 12.9226 42.2124 13.2081 42.1145 13.5115C42.0199 13.8116 41.8796 14.1036 41.6937 14.3875C41.511 14.6681 41.2891 14.9128 41.0281 15.1216L40.4017 14.6126C40.6072 14.319 40.785 14.0139 40.9351 13.6975C41.0885 13.3777 41.1651 13.0368 41.1651 12.6746V11.7741H42.2614ZM48.0484 15.9633L47.0109 16.257C46.9456 16.0841 46.8494 15.916 46.7222 15.7529C46.5982 15.5865 46.4285 15.4495 46.2132 15.3418C45.9979 15.2341 45.7222 15.1803 45.3861 15.1803C44.9261 15.1803 44.5427 15.2863 44.2361 15.4984C43.9326 15.7072 43.7809 15.9731 43.7809 16.2961C43.7809 16.5832 43.8853 16.81 44.0941 16.9764C44.3029 17.1428 44.6292 17.2814 45.0729 17.3924L46.1887 17.6664C46.8608 17.8295 47.3616 18.0791 47.6912 18.4152C48.0207 18.748 48.1854 19.177 48.1854 19.7023C48.1854 20.1329 48.0615 20.5179 47.8135 20.8572C47.5688 21.1966 47.2262 21.4641 46.7858 21.6598C46.3453 21.8556 45.8331 21.9535 45.2491 21.9535C44.4824 21.9535 43.8478 21.7871 43.3454 21.4543C42.8429 21.1215 42.5248 20.6354 42.391 19.9959L43.4873 19.7219C43.5917 20.1264 43.7891 20.4298 44.0794 20.6321C44.3731 20.8344 44.7564 20.9355 45.2295 20.9355C45.7678 20.9355 46.1952 20.8214 46.5117 20.593C46.8315 20.3613 46.9913 20.084 46.9913 19.761C46.9913 19.5 46.9 19.2814 46.7173 19.1052C46.5346 18.9258 46.254 18.792 45.8755 18.7039L44.6227 18.4103C43.9343 18.2472 43.4286 17.9943 43.1056 17.6517C42.7858 17.3059 42.626 16.8736 42.626 16.3548C42.626 15.9307 42.745 15.5555 42.9832 15.2292C43.2246 14.903 43.5525 14.6469 43.9669 14.4609C44.3845 14.2749 44.8576 14.182 45.3861 14.182C46.13 14.182 46.714 14.3451 47.1381 14.6713C47.5655 14.9976 47.869 15.4283 48.0484 15.9633ZM53.9566 21.7969V11.7741H55.1703V20.7202H59.8293V21.7969H53.9566ZM64.6057 21.9535C63.9271 21.9535 63.3317 21.792 62.8194 21.469C62.3105 21.146 61.9124 20.6941 61.6253 20.1134C61.3415 19.5326 61.1996 18.854 61.1996 18.0775C61.1996 17.2945 61.3415 16.611 61.6253 16.027C61.9124 15.4429 62.3105 14.9894 62.8194 14.6664C63.3317 14.3435 63.9271 14.182 64.6057 14.182C65.2843 14.182 65.8781 14.3435 66.3871 14.6664C66.8993 14.9894 67.2974 15.4429 67.5812 16.027C67.8683 16.611 68.0119 17.2945 68.0119 18.0775C68.0119 18.854 67.8683 19.5326 67.5812 20.1134C67.2974 20.6941 66.8993 21.146 66.3871 21.469C65.8781 21.792 65.2843 21.9535 64.6057 21.9535ZM64.6057 20.916C65.1212 20.916 65.5454 20.7838 65.8781 20.5196C66.2109 20.2553 66.4573 19.9078 66.6171 19.4772C66.777 19.0465 66.8569 18.5799 66.8569 18.0775C66.8569 17.5751 66.777 17.1069 66.6171 16.673C66.4573 16.239 66.2109 15.8883 65.8781 15.6208C65.5454 15.3532 65.1212 15.2195 64.6057 15.2195C64.0902 15.2195 63.6661 15.3532 63.3333 15.6208C63.0005 15.8883 62.7542 16.239 62.5943 16.673C62.4345 17.1069 62.3545 17.5751 62.3545 18.0775C62.3545 18.5799 62.4345 19.0465 62.5943 19.4772C62.7542 19.9078 63.0005 20.2553 63.3333 20.5196C63.6661 20.7838 64.0902 20.916 64.6057 20.916ZM71.2223 21.7969L68.9319 14.2798H70.1456L71.7704 20.0351H71.8487L73.4539 14.2798H74.6872L76.2728 20.0155H76.3511L77.9759 14.2798H79.1896L76.8992 21.7969H75.7638L74.1195 16.0221H74.002L72.3577 21.7969H71.2223Z" fill="#44475B"/>
<path d="M0.854492 51.5774V50.1903L5.76505 42.4332H6.85813V44.4751H6.16455L2.65226 50.0349V50.1237H9.38277V51.5774H0.854492ZM6.24223 53.7969V51.1557L6.25333 50.5232V42.4332H7.87908V53.7969H6.24223ZM15.2838 53.9522C14.777 53.9448 14.2776 53.8524 13.7856 53.6748C13.2973 53.4972 12.8534 53.2013 12.4539 52.787C12.0544 52.3727 11.7345 51.816 11.494 51.1169C11.2573 50.4177 11.1389 49.5448 11.1389 48.4979C11.1389 47.5066 11.2369 46.6262 11.433 45.8568C11.6327 45.0873 11.9194 44.4382 12.293 43.9092C12.6666 43.3765 13.1179 42.9715 13.6469 42.694C14.1759 42.4166 14.7696 42.2779 15.428 42.2779C16.105 42.2779 16.7061 42.411 17.2313 42.6774C17.7566 42.9437 18.182 43.3118 18.5075 43.7816C18.8367 44.2513 19.0457 44.7859 19.1345 45.3851H17.4422C17.3275 44.9116 17.1 44.5251 16.7597 44.2255C16.4194 43.9258 15.9755 43.776 15.428 43.776C14.5957 43.776 13.9465 44.1385 13.4804 44.8635C13.0181 45.5886 12.785 46.5966 12.7813 47.8876H12.8645C13.0606 47.5657 13.301 47.292 13.5859 47.0664C13.8744 46.837 14.1962 46.6613 14.5513 46.5392C14.9101 46.4135 15.2875 46.3506 15.6833 46.3506C16.3417 46.3506 16.9373 46.5115 17.4699 46.8333C18.0063 47.1514 18.4335 47.5916 18.7517 48.1539C19.0698 48.7162 19.2288 49.3598 19.2288 50.0848C19.2288 50.8099 19.0642 51.4664 18.735 52.0546C18.4095 52.6428 17.9508 53.1088 17.359 53.4529C16.7671 53.7932 16.0754 53.9596 15.2838 53.9522ZM15.2782 52.5096C15.7147 52.5096 16.105 52.4023 16.449 52.1878C16.793 51.9732 17.0649 51.6847 17.2646 51.3222C17.4644 50.9597 17.5643 50.5546 17.5643 50.107C17.5643 49.6705 17.4662 49.2729 17.2702 48.9141C17.0778 48.5552 16.8115 48.2704 16.4712 48.0596C16.1346 47.8487 15.7498 47.7433 15.3171 47.7433C14.9878 47.7433 14.6827 47.8062 14.4015 47.932C14.1241 48.0577 13.8799 48.2316 13.6691 48.4535C13.4583 48.6755 13.2918 48.9307 13.1697 49.2192C13.0514 49.5041 12.9922 49.8055 12.9922 50.1237C12.9922 50.5491 13.0902 50.943 13.2862 51.3055C13.486 51.668 13.7579 51.9603 14.1019 52.1822C14.4496 52.4005 14.8417 52.5096 15.2782 52.5096ZM22.9118 52.2433L22.8285 52.8481C22.773 53.2919 22.6787 53.7543 22.5456 54.2352C22.4161 54.7198 22.2811 55.1692 22.1405 55.5835C22.0036 55.9978 21.8908 56.3271 21.802 56.5712H20.6257C20.6738 56.3419 20.7404 56.0311 20.8255 55.639C20.9106 55.2506 20.9938 54.816 21.0752 54.3351C21.1565 53.8542 21.2176 53.3641 21.2583 52.8647L21.3138 52.2433H22.9118ZM28.8738 42.2779C29.3806 42.2816 29.8799 42.3741 30.3719 42.5553C30.8639 42.7366 31.3078 43.0325 31.7036 43.4431C32.1031 43.8537 32.4212 44.4086 32.658 45.1077C32.8984 45.8031 33.0205 46.6687 33.0242 47.7045C33.0242 48.6995 32.9243 49.5854 32.7246 50.3623C32.5248 51.1354 32.2381 51.7883 31.8645 52.3209C31.4946 52.8536 31.0452 53.2587 30.5162 53.5361C29.9872 53.8135 29.3917 53.9522 28.7295 53.9522C28.0526 53.9522 27.4515 53.8191 26.9262 53.5527C26.4009 53.2864 25.9737 52.9183 25.6445 52.4486C25.3153 51.9751 25.11 51.4313 25.0286 50.8172H26.7209C26.8319 51.3055 27.0575 51.7013 27.3978 52.0047C27.7419 52.3043 28.1858 52.4541 28.7295 52.4541C29.5618 52.4541 30.211 52.0916 30.6771 51.3666C31.1432 50.6378 31.3781 49.6206 31.3818 48.3148H31.293C31.1006 48.6329 30.8602 48.9067 30.5717 49.136C30.2868 49.3654 29.9669 49.5429 29.6118 49.6687C29.2566 49.7944 28.8775 49.8573 28.4743 49.8573C27.8195 49.8573 27.224 49.6964 26.6876 49.3746C26.1513 49.0528 25.724 48.6107 25.4059 48.0485C25.0878 47.4862 24.9287 46.8444 24.9287 46.1231C24.9287 45.4055 25.0915 44.7544 25.417 44.17C25.7462 43.5855 26.2049 43.1231 26.793 42.7828C27.3849 42.4388 28.0785 42.2705 28.8738 42.2779ZM28.8793 43.7205C28.4465 43.7205 28.0563 43.8278 27.7086 44.0423C27.3646 44.2532 27.0927 44.5399 26.8929 44.9024C26.6932 45.2612 26.5933 45.6607 26.5933 46.1009C26.5933 46.5411 26.6895 46.9406 26.8818 47.2994C27.0779 47.6545 27.3442 47.9375 27.6808 48.1483C28.0211 48.3555 28.4096 48.4591 28.846 48.4591C29.1716 48.4591 29.4749 48.3962 29.756 48.2704C30.0372 48.1446 30.2831 47.9708 30.494 47.7488C30.7048 47.5232 30.8695 47.268 30.9878 46.9831C31.1062 46.6983 31.1654 46.3987 31.1654 46.0843C31.1654 45.6663 31.0655 45.2778 30.8658 44.919C30.6697 44.5602 30.3997 44.2717 30.0557 44.0534C29.7116 43.8315 29.3195 43.7205 28.8793 43.7205ZM38.9848 53.9522C38.2228 53.9522 37.5422 53.8209 36.9429 53.5583C36.3474 53.2956 35.8757 52.9313 35.528 52.4652C35.184 51.9954 34.999 51.4516 34.9731 50.8339H36.7154C36.7376 51.1705 36.8504 51.4627 37.0539 51.7106C37.261 51.9547 37.5311 52.1434 37.864 52.2765C38.1969 52.4097 38.5668 52.4763 38.9737 52.4763C39.4213 52.4763 39.8171 52.3986 40.1611 52.2433C40.5088 52.0879 40.7807 51.8715 40.9768 51.5941C41.1728 51.3129 41.2709 50.9893 41.2709 50.623C41.2709 50.242 41.1728 49.9073 40.9768 49.6187C40.7844 49.3265 40.5015 49.0972 40.1278 48.9307C39.7579 48.7642 39.3103 48.681 38.7851 48.681H37.8252V47.2828H38.7851C39.2068 47.2828 39.5767 47.2069 39.8948 47.0553C40.2166 46.9036 40.4682 46.6928 40.6494 46.4227C40.8307 46.149 40.9213 45.829 40.9213 45.4628C40.9213 45.1114 40.8418 44.8062 40.6827 44.5473C40.5273 44.2846 40.3054 44.0793 40.0169 43.9314C39.732 43.7834 39.3954 43.7094 39.007 43.7094C38.6371 43.7094 38.2912 43.7779 37.9694 43.9147C37.6513 44.0479 37.3924 44.2402 37.1926 44.4918C36.9929 44.7396 36.8856 45.0374 36.8708 45.3851H35.2117C35.2302 44.7711 35.4115 44.231 35.7555 43.7649C36.1032 43.2988 36.5619 42.9345 37.1316 42.6718C37.7012 42.4092 38.3338 42.2779 39.0292 42.2779C39.7579 42.2779 40.3868 42.4203 40.9157 42.7051C41.4484 42.9863 41.859 43.3617 42.1475 43.8315C42.4398 44.3013 42.584 44.8155 42.5803 45.374C42.584 46.0103 42.4065 46.5503 42.0477 46.9942C41.6926 47.4381 41.2191 47.7359 40.6272 47.8876V47.9763C41.3818 48.091 41.9663 48.3906 42.3806 48.8752C42.7986 49.3598 43.0057 49.9609 43.002 50.6785C43.0057 51.3037 42.8319 51.8641 42.4805 52.3598C42.1328 52.8555 41.6574 53.2457 41.0545 53.5305C40.4515 53.8117 39.7616 53.9522 38.9848 53.9522ZM49.0556 53.9855C48.1789 53.9818 47.4299 53.7506 46.8084 53.2919C46.187 52.8333 45.7116 52.1656 45.3824 51.2889C45.0532 50.4122 44.8886 49.3561 44.8886 48.1206C44.8886 46.8888 45.0532 45.8364 45.3824 44.9634C45.7153 44.0904 46.1925 43.4246 46.814 42.9659C47.4391 42.5072 48.1863 42.2779 49.0556 42.2779C49.9249 42.2779 50.6703 42.5091 51.2917 42.9715C51.9132 43.4301 52.3885 44.096 52.7177 44.969C53.0506 45.8383 53.2171 46.8888 53.2171 48.1206C53.2171 49.3598 53.0525 50.4177 52.7233 51.2944C52.3941 52.1674 51.9187 52.8351 51.2973 53.2975C50.6758 53.7562 49.9286 53.9855 49.0556 53.9855ZM49.0556 52.504C49.825 52.504 50.4261 52.1286 50.8589 51.3777C51.2954 50.6267 51.5137 49.5411 51.5137 48.1206C51.5137 47.1773 51.4138 46.3802 51.214 45.7291C51.018 45.0744 50.735 44.5787 50.3651 44.2421C49.9989 43.9018 49.5624 43.7316 49.0556 43.7316C48.2899 43.7316 47.6888 44.1089 47.2523 44.8635C46.8158 45.6182 46.5957 46.7038 46.592 48.1206C46.592 49.0676 46.69 49.8684 46.8861 50.5232C47.0858 51.1742 47.3688 51.668 47.735 52.0047C48.1013 52.3376 48.5414 52.504 49.0556 52.504ZM55.8888 53.9023C55.5855 53.9023 55.3247 53.795 55.1064 53.5805C54.8882 53.3622 54.7791 53.0996 54.7791 52.7926C54.7791 52.4892 54.8882 52.2303 55.1064 52.0158C55.3247 51.7975 55.5855 51.6884 55.8888 51.6884C56.1921 51.6884 56.4529 51.7975 56.6711 52.0158C56.8894 52.2303 56.9985 52.4892 56.9985 52.7926C56.9985 52.996 56.9467 53.1828 56.8432 53.353C56.7433 53.5194 56.6101 53.6526 56.4436 53.7525C56.2772 53.8524 56.0922 53.9023 55.8888 53.9023ZM59.1986 53.7969V52.554L63.0438 48.57C63.4544 48.1373 63.7928 47.7581 64.0592 47.4326C64.3292 47.1034 64.5308 46.7908 64.664 46.4949C64.7971 46.1989 64.8637 45.8845 64.8637 45.5516C64.8637 45.1743 64.7749 44.8488 64.5974 44.575C64.4198 44.2976 64.1775 44.0849 63.8705 43.9369C63.5635 43.7853 63.2176 43.7094 62.8329 43.7094C62.426 43.7094 62.0709 43.7927 61.7676 43.9591C61.4643 44.1256 61.2312 44.3605 61.0684 44.6638C60.9057 44.9671 60.8243 45.3222 60.8243 45.7291H59.1875C59.1875 45.0374 59.3465 44.4326 59.6646 43.9147C59.9828 43.3969 60.4193 42.9955 60.9741 42.7107C61.529 42.4221 62.1597 42.2779 62.8662 42.2779C63.5801 42.2779 64.209 42.4203 64.7528 42.7051C65.3002 42.9863 65.7275 43.371 66.0345 43.8592C66.3415 44.3438 66.495 44.8913 66.495 45.5016C66.495 45.9233 66.4155 46.3358 66.2564 46.739C66.1011 47.1422 65.8292 47.5916 65.4408 48.0873C65.0524 48.5793 64.5123 49.1767 63.8206 49.8795L61.5623 52.2433V52.3265H66.6781V53.7969H59.1986ZM68.7811 53.7969V52.554L72.6263 48.57C73.0369 48.1373 73.3754 47.7581 73.6417 47.4326C73.9117 47.1034 74.1133 46.7908 74.2465 46.4949C74.3797 46.1989 74.4462 45.8845 74.4462 45.5516C74.4462 45.1743 74.3575 44.8488 74.1799 44.575C74.0024 44.2976 73.7601 44.0849 73.453 43.9369C73.146 43.7853 72.8001 43.7094 72.4154 43.7094C72.0085 43.7094 71.6534 43.7927 71.3501 43.9591C71.0468 44.1256 70.8137 44.3605 70.651 44.6638C70.4882 44.9671 70.4068 45.3222 70.4068 45.7291H68.77C68.77 45.0374 68.929 44.4326 69.2472 43.9147C69.5653 43.3969 70.0018 42.9955 70.5566 42.7107C71.1115 42.4221 71.7422 42.2779 72.4487 42.2779C73.1627 42.2779 73.7915 42.4203 74.3353 42.7051C74.8827 42.9863 75.31 43.371 75.617 43.8592C75.924 44.3438 76.0775 44.8913 76.0775 45.5016C76.0775 45.9233 75.998 46.3358 75.839 46.739C75.6836 47.1422 75.4117 47.5916 75.0233 48.0873C74.6349 48.5793 74.0948 49.1767 73.4031 49.8795L71.1448 52.2433V52.3265H76.2607V53.7969H68.7811Z" fill="#44475B"/>
<rect x="124" y="33.9819" width="582.8" height="4.63" rx="2.315" fill="#121212" fill-opacity="0.3"/>
<rect x="124" y="33.9819" width="582.8" height="4.63" rx="2.315" fill="url(#paint0_linear_1_1124)"/>
<path d="M749.214 12.9928V11.9332H756.611V12.9928H753.51V21.7969H752.315V12.9928H749.214ZM760.233 21.951C759.565 21.951 758.979 21.7921 758.475 21.4742C757.974 21.1563 757.583 20.7116 757.3 20.1401C757.021 19.5686 756.881 18.9007 756.881 18.1365C756.881 17.3659 757.021 16.6933 757.3 16.1185C757.583 15.5438 757.974 15.0975 758.475 14.7796C758.979 14.4618 759.565 14.3028 760.233 14.3028C760.901 14.3028 761.486 14.4618 761.986 14.7796C762.491 15.0975 762.882 15.5438 763.162 16.1185C763.444 16.6933 763.585 17.3659 763.585 18.1365C763.585 18.9007 763.444 19.5686 763.162 20.1401C762.882 20.7116 762.491 21.1563 761.986 21.4742C761.486 21.7921 760.901 21.951 760.233 21.951ZM760.233 20.93C760.741 20.93 761.158 20.7999 761.486 20.5398C761.813 20.2798 762.055 19.9378 762.213 19.514C762.37 19.0902 762.449 18.631 762.449 18.1365C762.449 17.6421 762.37 17.1813 762.213 16.7543C762.055 16.3272 761.813 15.9821 761.486 15.7188C761.158 15.4555 760.741 15.3239 760.233 15.3239C759.726 15.3239 759.309 15.4555 758.981 15.7188C758.654 15.9821 758.411 16.3272 758.254 16.7543C758.096 17.1813 758.018 17.6421 758.018 18.1365C758.018 18.631 758.096 19.0902 758.254 19.514C758.411 19.9378 758.654 20.2798 758.981 20.5398C759.309 20.7999 759.726 20.93 760.233 20.93ZM768.114 21.951C767.497 21.951 766.953 21.7953 766.481 21.4838C766.009 21.1692 765.64 20.7261 765.373 20.1545C765.107 19.5798 764.974 18.9007 764.974 18.1173C764.974 17.3403 765.107 16.666 765.373 16.0945C765.64 15.5229 766.011 15.0814 766.486 14.77C766.961 14.4585 767.51 14.3028 768.133 14.3028C768.615 14.3028 768.995 14.3831 769.275 14.5436C769.557 14.701 769.772 14.8808 769.92 15.0831C770.071 15.2821 770.188 15.4459 770.272 15.5743H770.368V11.9332H771.504V21.7969H770.406V20.6602H770.272C770.188 20.7951 770.069 20.9653 769.915 21.1708C769.761 21.373 769.541 21.5545 769.255 21.715C768.97 21.8723 768.589 21.951 768.114 21.951ZM768.268 20.93C768.724 20.93 769.109 20.8112 769.424 20.5736C769.739 20.3327 769.978 20.0004 770.141 19.5766C770.305 19.1496 770.387 18.6567 770.387 18.098C770.387 17.5458 770.307 17.0625 770.146 16.6483C769.986 16.2309 769.748 15.9066 769.434 15.6754C769.119 15.4411 768.73 15.3239 768.268 15.3239C767.786 15.3239 767.385 15.4475 767.064 15.6947C766.746 15.9387 766.507 16.2711 766.346 16.6917C766.189 17.1091 766.11 17.5779 766.11 18.098C766.11 18.6246 766.191 19.103 766.351 19.5332C766.515 19.9603 766.756 20.3006 767.074 20.5543C767.395 20.8047 767.793 20.93 768.268 20.93ZM775.921 21.9703C775.452 21.9703 775.027 21.882 774.645 21.7054C774.263 21.5256 773.959 21.2671 773.734 20.93C773.51 20.5896 773.397 20.1786 773.397 19.697C773.397 19.2732 773.481 18.9296 773.648 18.6663C773.815 18.3998 774.038 18.1911 774.317 18.0402C774.596 17.8893 774.905 17.7769 775.242 17.7031C775.582 17.626 775.924 17.565 776.268 17.5201C776.717 17.4623 777.082 17.4189 777.361 17.39C777.644 17.3579 777.849 17.3049 777.977 17.2311C778.109 17.1572 778.175 17.0288 778.175 16.8458V16.8073C778.175 16.3321 778.045 15.9628 777.785 15.6995C777.528 15.4362 777.138 15.3046 776.614 15.3046C776.072 15.3046 775.646 15.4234 775.338 15.661C775.03 15.8986 774.813 16.1523 774.688 16.422L773.609 16.0367C773.802 15.5872 774.059 15.2372 774.38 14.9867C774.704 14.7331 775.057 14.5565 775.439 14.4569C775.825 14.3542 776.204 14.3028 776.576 14.3028C776.814 14.3028 777.086 14.3317 777.395 14.3895C777.706 14.4441 778.006 14.5581 778.295 14.7315C778.588 14.9049 778.83 15.1665 779.023 15.5165C779.215 15.8665 779.312 16.3353 779.312 16.9229V21.7969H778.175V20.7951H778.117C778.04 20.9556 777.912 21.1274 777.732 21.3104C777.552 21.4935 777.313 21.6492 777.014 21.7776C776.716 21.906 776.351 21.9703 775.921 21.9703ZM776.094 20.9492C776.544 20.9492 776.923 20.8609 777.231 20.6843C777.542 20.5077 777.777 20.2798 777.934 20.0004C778.095 19.7211 778.175 19.4273 778.175 19.1191V18.0787C778.127 18.1365 778.021 18.1895 777.857 18.2377C777.697 18.2826 777.51 18.3228 777.298 18.3581C777.09 18.3902 776.886 18.4191 776.687 18.4448C776.491 18.4673 776.332 18.4865 776.21 18.5026C775.915 18.5411 775.638 18.6037 775.382 18.6904C775.128 18.7739 774.922 18.9007 774.765 19.0709C774.611 19.2379 774.534 19.4658 774.534 19.7548C774.534 20.1497 774.68 20.4483 774.972 20.6506C775.268 20.8497 775.642 20.9492 776.094 20.9492ZM781.853 24.571C781.661 24.571 781.489 24.555 781.338 24.5229C781.187 24.494 781.083 24.4651 781.025 24.4362L781.314 23.4344C781.59 23.505 781.834 23.5307 782.046 23.5115C782.258 23.4922 782.446 23.3975 782.609 23.2273C782.776 23.0603 782.929 22.789 783.067 22.4134L783.279 21.8354L780.543 14.3991H781.776L783.818 20.2942H783.895L785.938 14.3991H787.17L784.03 22.8757C783.889 23.2578 783.714 23.5741 783.505 23.8245C783.297 24.0782 783.054 24.266 782.778 24.388C782.505 24.51 782.197 24.571 781.853 24.571ZM790.149 11.9332V12.8002C790.149 13.0634 790.101 13.3444 790.005 13.643C789.912 13.9384 789.774 14.2258 789.591 14.5051C789.411 14.7812 789.192 15.022 788.936 15.2275L788.319 14.7267C788.521 14.4377 788.696 14.1375 788.844 13.826C788.995 13.5114 789.07 13.1758 789.07 12.8194V11.9332H790.149ZM795.844 16.0559L794.823 16.3449C794.759 16.1747 794.665 16.0094 794.539 15.8488C794.417 15.6851 794.25 15.5502 794.038 15.4443C793.826 15.3383 793.555 15.2853 793.224 15.2853C792.772 15.2853 792.394 15.3897 792.093 15.5984C791.794 15.8039 791.645 16.0656 791.645 16.3834C791.645 16.666 791.747 16.8891 791.953 17.0529C792.158 17.2166 792.48 17.3531 792.916 17.4623L794.014 17.732C794.676 17.8925 795.169 18.1381 795.493 18.4689C795.817 18.7964 795.979 19.2186 795.979 19.7355C795.979 20.1594 795.857 20.5382 795.613 20.8722C795.373 21.2061 795.035 21.4694 794.602 21.662C794.168 21.8547 793.664 21.951 793.09 21.951C792.335 21.951 791.711 21.7872 791.216 21.4597C790.722 21.1322 790.409 20.6538 790.277 20.0245L791.356 19.7548C791.459 20.1529 791.653 20.4515 791.939 20.6506C792.228 20.8497 792.605 20.9492 793.07 20.9492C793.6 20.9492 794.021 20.8368 794.332 20.6121C794.647 20.3841 794.804 20.1112 794.804 19.7933C794.804 19.5365 794.714 19.3213 794.534 19.1479C794.355 18.9714 794.079 18.8397 793.706 18.753L792.473 18.464C791.796 18.3035 791.298 18.0547 790.98 17.7175C790.665 17.3772 790.508 16.9517 790.508 16.4412C790.508 16.0238 790.625 15.6546 790.86 15.3335C791.097 15.0124 791.42 14.7604 791.828 14.5773C792.239 14.3943 792.704 14.3028 793.224 14.3028C793.957 14.3028 794.531 14.4634 794.949 14.7844C795.369 15.1055 795.668 15.5294 795.844 16.0559ZM801.659 21.7969V11.9332H802.853V16.3256H808.113V11.9332H809.307V21.7969H808.113V17.3852H802.853V21.7969H801.659ZM811.544 21.7969V14.3991H812.681V21.7969H811.544ZM812.122 13.1662C811.901 13.1662 811.71 13.0907 811.549 12.9398C811.392 12.7889 811.313 12.6075 811.313 12.3956C811.313 12.1837 811.392 12.0023 811.549 11.8514C811.71 11.7005 811.901 11.625 812.122 11.625C812.344 11.625 812.533 11.7005 812.69 11.8514C812.851 12.0023 812.931 12.1837 812.931 12.3956C812.931 12.6075 812.851 12.7889 812.69 12.9398C812.533 13.0907 812.344 13.1662 812.122 13.1662ZM817.749 24.7251C817.2 24.7251 816.728 24.6545 816.333 24.5132C815.938 24.3752 815.609 24.1921 815.345 23.9642C815.085 23.7394 814.878 23.4986 814.724 23.2417L815.63 22.606C815.732 22.7409 815.862 22.895 816.02 23.0684C816.177 23.245 816.392 23.3975 816.665 23.5259C816.941 23.6575 817.302 23.7234 817.749 23.7234C818.346 23.7234 818.839 23.5789 819.227 23.2899C819.616 23.0009 819.81 22.5482 819.81 21.9317V20.4291H819.714C819.63 20.5639 819.511 20.7309 819.357 20.93C819.206 21.1258 818.988 21.3008 818.702 21.4549C818.42 21.6058 818.038 21.6813 817.556 21.6813C816.959 21.6813 816.423 21.54 815.947 21.2575C815.475 20.9749 815.101 20.5639 814.825 20.0245C814.552 19.4851 814.416 18.8301 814.416 18.0595C814.416 17.3017 814.549 16.6419 814.816 16.08C815.082 15.5149 815.453 15.0782 815.928 14.77C816.403 14.4585 816.952 14.3028 817.575 14.3028C818.057 14.3028 818.439 14.3831 818.722 14.5436C819.007 14.701 819.226 14.8808 819.377 15.0831C819.531 15.2821 819.65 15.4459 819.733 15.5743H819.849V14.3991H820.947V22.0088C820.947 22.6445 820.802 23.1615 820.513 23.5596C820.227 23.961 819.842 24.2548 819.357 24.441C818.876 24.6304 818.339 24.7251 817.749 24.7251ZM817.71 20.6602C818.166 20.6602 818.551 20.5559 818.866 20.3472C819.181 20.1385 819.42 19.8383 819.584 19.4466C819.747 19.0548 819.829 18.5861 819.829 18.0402C819.829 17.5072 819.749 17.0368 819.589 16.6291C819.428 16.2213 819.19 15.9018 818.876 15.6706C818.561 15.4395 818.173 15.3239 817.71 15.3239C817.229 15.3239 816.827 15.4459 816.506 15.6899C816.188 15.9339 815.949 16.2614 815.788 16.6724C815.631 17.0834 815.553 17.5393 815.553 18.0402C815.553 18.5539 815.633 19.0083 815.793 19.4032C815.957 19.7949 816.198 20.1032 816.516 20.3279C816.837 20.5495 817.235 20.6602 817.71 20.6602ZM824.164 17.3467V21.7969H823.027V11.9332H824.164V15.555H824.26C824.434 15.173 824.694 14.8695 825.04 14.6448C825.39 14.4168 825.856 14.3028 826.437 14.3028C826.941 14.3028 827.383 14.404 827.762 14.6062C828.141 14.8053 828.434 15.1119 828.643 15.5261C828.855 15.9371 828.961 16.4605 828.961 17.0962V21.7969H827.824V17.1733C827.824 16.5857 827.672 16.1314 827.367 15.8103C827.065 15.486 826.646 15.3239 826.11 15.3239C825.737 15.3239 825.403 15.4025 825.108 15.5599C824.816 15.7172 824.585 15.9468 824.414 16.2486C824.247 16.5504 824.164 16.9164 824.164 17.3467Z" fill="#44475B"/>
<path d="M753.004 51.5774V50.1903L757.915 42.4332H759.008V44.4751H758.314L754.802 50.0349V50.1237H761.532V51.5774H753.004ZM758.392 53.7969V51.1557L758.403 50.5232V42.4332H760.029V53.7969H758.392ZM767.245 42.2779C767.752 42.2816 768.251 42.3741 768.743 42.5553C769.235 42.7366 769.679 43.0325 770.075 43.4431C770.474 43.8537 770.792 44.4086 771.029 45.1077C771.269 45.8031 771.391 46.6687 771.395 47.7045C771.395 48.6995 771.295 49.5854 771.096 50.3623C770.896 51.1354 770.609 51.7883 770.235 52.3209C769.866 52.8536 769.416 53.2587 768.887 53.5361C768.358 53.8135 767.763 53.9522 767.1 53.9522C766.424 53.9522 765.822 53.8191 765.297 53.5527C764.772 53.2864 764.345 52.9183 764.015 52.4486C763.686 51.9751 763.481 51.4313 763.4 50.8172H765.092C765.203 51.3055 765.428 51.7013 765.769 52.0047C766.113 52.3043 766.557 52.4541 767.1 52.4541C767.933 52.4541 768.582 52.0916 769.048 51.3666C769.514 50.6378 769.749 49.6206 769.753 48.3148H769.664C769.472 48.6329 769.231 48.9067 768.943 49.136C768.658 49.3654 768.338 49.5429 767.983 49.6687C767.628 49.7944 767.248 49.8573 766.845 49.8573C766.191 49.8573 765.595 49.6964 765.059 49.3746C764.522 49.0528 764.095 48.6107 763.777 48.0485C763.459 47.4862 763.3 46.8444 763.3 46.1231C763.3 45.4055 763.462 44.7544 763.788 44.17C764.117 43.5855 764.576 43.1231 765.164 42.7828C765.756 42.4388 766.449 42.2705 767.245 42.2779ZM767.25 43.7205C766.818 43.7205 766.427 43.8278 766.08 44.0423C765.736 44.2532 765.464 44.5399 765.264 44.9024C765.064 45.2612 764.964 45.6607 764.964 46.1009C764.964 46.5411 765.06 46.9406 765.253 47.2994C765.449 47.6545 765.715 47.9375 766.052 48.1483C766.392 48.3555 766.781 48.4591 767.217 48.4591C767.543 48.4591 767.846 48.3962 768.127 48.2704C768.408 48.1446 768.654 47.9708 768.865 47.7488C769.076 47.5232 769.24 47.268 769.359 46.9831C769.477 46.6983 769.536 46.3987 769.536 46.0843C769.536 45.6663 769.436 45.2778 769.237 44.919C769.041 44.5602 768.771 44.2717 768.427 44.0534C768.083 43.8315 767.69 43.7205 767.25 43.7205ZM775.168 52.2433L775.085 52.8481C775.03 53.2919 774.935 53.7543 774.802 54.2352C774.673 54.7198 774.538 55.1692 774.397 55.5835C774.26 55.9978 774.147 56.3271 774.058 56.5712H772.882C772.93 56.3419 772.997 56.0311 773.082 55.639C773.167 55.2506 773.25 54.816 773.332 54.3351C773.413 53.8542 773.474 53.3641 773.515 52.8647L773.57 52.2433H775.168ZM781.033 53.9522C780.271 53.9522 779.59 53.8209 778.991 53.5583C778.396 53.2956 777.924 52.9313 777.576 52.4652C777.232 51.9954 777.047 51.4516 777.021 50.8339H778.764C778.786 51.1705 778.899 51.4627 779.102 51.7106C779.309 51.9547 779.579 52.1434 779.912 52.2765C780.245 52.4097 780.615 52.4763 781.022 52.4763C781.47 52.4763 781.865 52.3986 782.209 52.2433C782.557 52.0879 782.829 51.8715 783.025 51.5941C783.221 51.3129 783.319 50.9893 783.319 50.623C783.319 50.242 783.221 49.9073 783.025 49.6187C782.833 49.3265 782.55 49.0972 782.176 48.9307C781.806 48.7642 781.359 48.681 780.833 48.681H779.873V47.2828H780.833C781.255 47.2828 781.625 47.2069 781.943 47.0553C782.265 46.9036 782.516 46.6928 782.698 46.4227C782.879 46.149 782.97 45.829 782.97 45.4628C782.97 45.1114 782.89 44.8062 782.731 44.5473C782.576 44.2846 782.354 44.0793 782.065 43.9314C781.78 43.7834 781.444 43.7094 781.055 43.7094C780.685 43.7094 780.34 43.7779 780.018 43.9147C779.7 44.0479 779.441 44.2402 779.241 44.4918C779.041 44.7396 778.934 45.0374 778.919 45.3851H777.26C777.279 44.7711 777.46 44.231 777.804 43.7649C778.152 43.2988 778.61 42.9345 779.18 42.6718C779.75 42.4092 780.382 42.2779 781.078 42.2779C781.806 42.2779 782.435 42.4203 782.964 42.7051C783.497 42.9863 783.907 43.3617 784.196 43.8315C784.488 44.3013 784.632 44.8155 784.629 45.374C784.632 46.0103 784.455 46.5503 784.096 46.9942C783.741 47.4381 783.267 47.7359 782.676 47.8876V47.9763C783.43 48.091 784.015 48.3906 784.429 48.8752C784.847 49.3598 785.054 49.9609 785.05 50.6785C785.054 51.3037 784.88 51.8641 784.529 52.3598C784.181 52.8555 783.706 53.2457 783.103 53.5305C782.5 53.8117 781.81 53.9522 781.033 53.9522ZM786.909 51.5774V50.1903L791.82 42.4332H792.913V44.4751H792.219L788.707 50.0349V50.1237H795.437V51.5774H786.909ZM792.297 53.7969V51.1557L792.308 50.5232V42.4332H793.934V53.7969H792.297ZM801.327 53.9522C800.565 53.9522 799.885 53.8209 799.285 53.5583C798.69 53.2956 798.218 52.9313 797.871 52.4652C797.527 51.9954 797.342 51.4516 797.316 50.8339H799.058C799.08 51.1705 799.193 51.4627 799.396 51.7106C799.604 51.9547 799.874 52.1434 800.207 52.2765C800.539 52.4097 800.909 52.4763 801.316 52.4763C801.764 52.4763 802.16 52.3986 802.504 52.2433C802.851 52.0879 803.123 51.8715 803.319 51.5941C803.515 51.3129 803.613 50.9893 803.613 50.623C803.613 50.242 803.515 49.9073 803.319 49.6187C803.127 49.3265 802.844 49.0972 802.47 48.9307C802.1 48.7642 801.653 48.681 801.128 48.681H800.168V47.2828H801.128C801.549 47.2828 801.919 47.2069 802.237 47.0553C802.559 46.9036 802.811 46.6928 802.992 46.4227C803.173 46.149 803.264 45.829 803.264 45.4628C803.264 45.1114 803.184 44.8062 803.025 44.5473C802.87 44.2846 802.648 44.0793 802.359 43.9314C802.075 43.7834 801.738 43.7094 801.35 43.7094C800.98 43.7094 800.634 43.7779 800.312 43.9147C799.994 44.0479 799.735 44.2402 799.535 44.4918C799.335 44.7396 799.228 45.0374 799.213 45.3851H797.554C797.573 44.7711 797.754 44.231 798.098 43.7649C798.446 43.2988 798.904 42.9345 799.474 42.6718C800.044 42.4092 800.676 42.2779 801.372 42.2779C802.1 42.2779 802.729 42.4203 803.258 42.7051C803.791 42.9863 804.202 43.3617 804.49 43.8315C804.782 44.3013 804.927 44.8155 804.923 45.374C804.927 46.0103 804.749 46.5503 804.39 46.9942C804.035 47.4381 803.562 47.7359 802.97 47.8876V47.9763C803.724 48.091 804.309 48.3906 804.723 48.8752C805.141 49.3598 805.348 49.9609 805.345 50.6785C805.348 51.3037 805.174 51.8641 804.823 52.3598C804.475 52.8555 804 53.2457 803.397 53.5305C802.794 53.8117 802.104 53.9522 801.327 53.9522ZM808.222 53.9023C807.918 53.9023 807.657 53.795 807.439 53.5805C807.221 53.3622 807.112 53.0996 807.112 52.7926C807.112 52.4892 807.221 52.2303 807.439 52.0158C807.657 51.7975 807.918 51.6884 808.222 51.6884C808.525 51.6884 808.786 51.7975 809.004 52.0158C809.222 52.2303 809.331 52.4892 809.331 52.7926C809.331 52.996 809.279 53.1828 809.176 53.353C809.076 53.5194 808.943 53.6526 808.776 53.7525C808.61 53.8524 808.425 53.9023 808.222 53.9023ZM814.989 53.9522C814.194 53.9522 813.491 53.8154 812.881 53.5416C812.274 53.2679 811.799 52.8906 811.455 52.4097C811.111 51.9288 810.941 51.3814 810.945 50.7673C810.941 50.2864 811.039 49.8444 811.239 49.4412C811.442 49.0343 811.718 48.6958 812.065 48.4258C812.413 48.152 812.801 47.9782 813.231 47.9042V47.8376C812.665 47.7008 812.211 47.3974 811.871 46.9276C811.531 46.4579 811.363 45.9178 811.366 45.3074C811.363 44.7267 811.516 44.2088 811.827 43.7538C812.141 43.2951 812.572 42.9345 813.12 42.6718C813.667 42.4092 814.29 42.2779 814.989 42.2779C815.681 42.2779 816.299 42.411 816.843 42.6774C817.39 42.94 817.821 43.3007 818.136 43.7594C818.45 44.2144 818.609 44.7304 818.613 45.3074C818.609 45.9178 818.435 46.4579 818.091 46.9276C817.747 47.3974 817.3 47.7008 816.748 47.8376V47.9042C817.174 47.9782 817.557 48.152 817.897 48.4258C818.241 48.6958 818.515 49.0343 818.718 49.4412C818.925 49.8444 819.031 50.2864 819.034 50.7673C819.031 51.3814 818.857 51.9288 818.513 52.4097C818.169 52.8906 817.692 53.2679 817.081 53.5416C816.475 53.8154 815.777 53.9522 814.989 53.9522ZM814.989 52.5484C815.459 52.5484 815.866 52.4707 816.21 52.3154C816.554 52.1563 816.821 51.9362 817.009 51.6551C817.198 51.3703 817.294 51.0373 817.298 50.6563C817.294 50.2605 817.19 49.911 816.987 49.6076C816.787 49.3043 816.515 49.0657 816.171 48.8919C815.827 48.718 815.433 48.6311 814.989 48.6311C814.542 48.6311 814.144 48.718 813.797 48.8919C813.449 49.0657 813.175 49.3043 812.975 49.6076C812.776 49.911 812.678 50.2605 812.681 50.6563C812.678 51.0373 812.768 51.3703 812.953 51.6551C813.142 51.9362 813.41 52.1563 813.758 52.3154C814.105 52.4707 814.516 52.5484 814.989 52.5484ZM814.989 47.2606C815.367 47.2606 815.702 47.1847 815.994 47.0331C816.286 46.8814 816.515 46.6706 816.682 46.4005C816.852 46.1305 816.939 45.8142 816.943 45.4517C816.939 45.0966 816.854 44.7859 816.687 44.5195C816.525 44.2532 816.297 44.0479 816.005 43.9036C815.713 43.7557 815.374 43.6817 814.989 43.6817C814.597 43.6817 814.253 43.7557 813.957 43.9036C813.665 44.0479 813.438 44.2532 813.275 44.5195C813.112 44.7859 813.033 45.0966 813.036 45.4517C813.033 45.8142 813.114 46.1305 813.281 46.4005C813.447 46.6706 813.676 46.8814 813.969 47.0331C814.264 47.1847 814.605 47.2606 814.989 47.2606ZM824.978 53.9522C824.216 53.9522 823.536 53.8209 822.937 53.5583C822.341 53.2956 821.869 52.9313 821.522 52.4652C821.178 51.9954 820.993 51.4516 820.967 50.8339H822.709C822.731 51.1705 822.844 51.4627 823.048 51.7106C823.255 51.9547 823.525 52.1434 823.858 52.2765C824.191 52.4097 824.56 52.4763 824.967 52.4763C825.415 52.4763 825.811 52.3986 826.155 52.2433C826.502 52.0879 826.774 51.8715 826.97 51.5941C827.166 51.3129 827.265 50.9893 827.265 50.623C827.265 50.242 827.166 49.9073 826.97 49.6187C826.778 49.3265 826.495 49.0972 826.121 48.9307C825.752 48.7642 825.304 48.681 824.779 48.681H823.819V47.2828H824.779C825.2 47.2828 825.57 47.2069 825.888 47.0553C826.21 46.9036 826.462 46.6928 826.643 46.4227C826.824 46.149 826.915 45.829 826.915 45.4628C826.915 45.1114 826.835 44.8062 826.676 44.5473C826.521 44.2846 826.299 44.0793 826.011 43.9314C825.726 43.7834 825.389 43.7094 825.001 43.7094C824.631 43.7094 824.285 43.7779 823.963 43.9147C823.645 44.0479 823.386 44.2402 823.186 44.4918C822.986 44.7396 822.879 45.0374 822.864 45.3851H821.205C821.224 44.7711 821.405 44.231 821.749 43.7649C822.097 43.2988 822.556 42.9345 823.125 42.6718C823.695 42.4092 824.327 42.2779 825.023 42.2779C825.752 42.2779 826.38 42.4203 826.909 42.7051C827.442 42.9863 827.853 43.3617 828.141 43.8315C828.433 44.3013 828.578 44.8155 828.574 45.374C828.578 46.0103 828.4 46.5503 828.041 46.9942C827.686 47.4381 827.213 47.7359 826.621 47.8876V47.9763C827.375 48.091 827.96 48.3906 828.374 48.8752C828.792 49.3598 828.999 49.9609 828.996 50.6785C828.999 51.3037 828.826 51.8641 828.474 52.3598C828.126 52.8555 827.651 53.2457 827.048 53.5305C826.445 53.8117 825.755 53.9522 824.978 53.9522Z" fill="#44475B"/>
<path d="M4.2358 107.936C3.65246 107.936 3.12713 107.82 2.6598 107.588C2.19247 107.356 1.81795 107.038 1.53622 106.634C1.2545 106.229 1.10038 105.768 1.07386 105.251H2.26705C2.31345 105.712 2.52225 106.093 2.89347 106.395C3.26799 106.693 3.71544 106.842 4.2358 106.842C4.65341 106.842 5.02462 106.745 5.34943 106.549C5.67756 106.353 5.93442 106.085 6.12003 105.744C6.30895 105.399 6.40341 105.009 6.40341 104.575C6.40341 104.131 6.30563 103.735 6.11009 103.387C5.91785 103.036 5.6527 102.759 5.31463 102.557C4.97656 102.355 4.59044 102.252 4.15625 102.249C3.8447 102.245 3.52486 102.293 3.19673 102.393C2.86861 102.489 2.59848 102.613 2.38636 102.766L1.23295 102.626L1.84943 97.6151H7.1392V98.7088H2.88352L2.52557 101.712H2.58523C2.79403 101.546 3.05587 101.408 3.37074 101.299C3.68561 101.19 4.01373 101.135 4.35511 101.135C4.97822 101.135 5.53338 101.284 6.0206 101.582C6.51113 101.877 6.8956 102.282 7.17401 102.795C7.45573 103.309 7.59659 103.896 7.59659 104.555C7.59659 105.205 7.45076 105.785 7.15909 106.295C6.87074 106.803 6.47301 107.204 5.96591 107.499C5.45881 107.79 4.8821 107.936 4.2358 107.936ZM9.57156 107.797V106.902L12.9324 103.223C13.3268 102.792 13.6516 102.418 13.9068 102.099C14.162 101.778 14.3509 101.476 14.4735 101.195C14.5995 100.91 14.6625 100.611 14.6625 100.3C14.6625 99.9418 14.5763 99.6319 14.4039 99.37C14.2349 99.1082 14.0029 98.906 13.7079 98.7635C13.4129 98.621 13.0815 98.5497 12.7136 98.5497C12.3225 98.5497 11.9811 98.6309 11.6895 98.7933C11.4011 98.9524 11.1774 99.1761 11.0183 99.4645C10.8625 99.7528 10.7846 100.091 10.7846 100.479H9.61133C9.61133 99.8821 9.74888 99.3584 10.024 98.9077C10.2991 98.4569 10.6736 98.1056 11.1475 97.8537C11.6248 97.6018 12.1601 97.4759 12.7534 97.4759C13.35 97.4759 13.8786 97.6018 14.3393 97.8537C14.8 98.1056 15.1613 98.4453 15.4231 98.8729C15.685 99.3004 15.8159 99.776 15.8159 100.3C15.8159 100.674 15.7479 101.04 15.612 101.398C15.4795 101.753 15.2475 102.149 14.916 102.587C14.5879 103.021 14.1322 103.551 13.5488 104.178L11.2619 106.624V106.703H15.9949V107.797H9.57156ZM20.0765 107.797L17.2924 97.6151H18.5453L20.6731 105.908H20.7725L22.9402 97.6151H24.3322L26.4998 105.908H26.5993L28.7271 97.6151H29.9799L27.1958 107.797H25.9231L23.676 99.6832H23.5964L21.3493 107.797H20.0765ZM35.4537 107.797V97.6151H36.6866V106.703H41.4196V107.797H35.4537ZM46.2718 107.956C45.5824 107.956 44.9776 107.792 44.4572 107.464C43.9402 107.136 43.5358 106.677 43.2441 106.087C42.9558 105.497 42.8116 104.807 42.8116 104.018C42.8116 103.223 42.9558 102.529 43.2441 101.935C43.5358 101.342 43.9402 100.881 44.4572 100.553C44.9776 100.225 45.5824 100.061 46.2718 100.061C46.9612 100.061 47.5645 100.225 48.0815 100.553C48.6019 100.881 49.0062 101.342 49.2946 101.935C49.5862 102.529 49.7321 103.223 49.7321 104.018C49.7321 104.807 49.5862 105.497 49.2946 106.087C49.0062 106.677 48.6019 107.136 48.0815 107.464C47.5645 107.792 46.9612 107.956 46.2718 107.956ZM46.2718 106.902C46.7955 106.902 47.2264 106.768 47.5645 106.499C47.9025 106.231 48.1528 105.878 48.3152 105.44C48.4776 105.003 48.5588 104.529 48.5588 104.018C48.5588 103.508 48.4776 103.032 48.3152 102.592C48.1528 102.151 47.9025 101.795 47.5645 101.523C47.2264 101.251 46.7955 101.115 46.2718 101.115C45.7482 101.115 45.3173 101.251 44.9792 101.523C44.6412 101.795 44.3909 102.151 44.2285 102.592C44.0661 103.032 43.9849 103.508 43.9849 104.018C43.9849 104.529 44.0661 105.003 44.2285 105.44C44.3909 105.878 44.6412 106.231 44.9792 106.499C45.3173 106.768 45.7482 106.902 46.2718 106.902ZM52.9934 107.797L50.6667 100.161H51.8997L53.5502 106.007H53.6298L55.2605 100.161H56.5133L58.1241 105.987H58.2037L59.8542 100.161H61.0872L58.7605 107.797H57.6071L55.9366 101.93H55.8173L54.1468 107.797H52.9934Z" fill="#44475B"/>
<path d="M5.40439 128.433V139.797H3.6843V130.153H3.61772L0.898881 131.929V130.286L3.73424 128.433H5.40439ZM12.4456 139.952C11.9388 139.945 11.4395 139.852 10.9475 139.675C10.4592 139.497 10.0153 139.201 9.61581 138.787C9.21631 138.373 8.89634 137.816 8.65589 137.117C8.41915 136.418 8.30078 135.545 8.30078 134.498C8.30078 133.507 8.39881 132.626 8.59486 131.857C8.79461 131.087 9.08129 130.438 9.4549 129.909C9.82851 129.377 10.2798 128.971 10.8088 128.694C11.3377 128.417 11.9314 128.278 12.5899 128.278C13.2668 128.278 13.8679 128.411 14.3932 128.677C14.9185 128.944 15.3439 129.312 15.6694 129.782C15.9986 130.251 16.2076 130.786 16.2964 131.385H14.604C14.4894 130.912 14.2619 130.525 13.9216 130.225C13.5812 129.926 13.1374 129.776 12.5899 129.776C11.7576 129.776 11.1084 130.139 10.6423 130.864C10.1799 131.589 9.94688 132.597 9.94318 133.888H10.0264C10.2225 133.566 10.4629 133.292 10.7477 133.066C11.0363 132.837 11.3581 132.661 11.7132 132.539C12.072 132.413 12.4493 132.351 12.8451 132.351C13.5036 132.351 14.0991 132.511 14.6318 132.833C15.1682 133.151 15.5954 133.592 15.9135 134.154C16.2317 134.716 16.3907 135.36 16.3907 136.085C16.3907 136.81 16.2261 137.466 15.8969 138.055C15.5714 138.643 15.1127 139.109 14.5208 139.453C13.929 139.793 13.2372 139.96 12.4456 139.952ZM12.4401 138.51C12.8766 138.51 13.2668 138.402 13.6108 138.188C13.9549 137.973 14.2267 137.685 14.4265 137.322C14.6262 136.96 14.7261 136.555 14.7261 136.107C14.7261 135.671 14.6281 135.273 14.432 134.914C14.2397 134.555 13.9734 134.27 13.633 134.06C13.2964 133.849 12.9117 133.743 12.4789 133.743C12.1497 133.743 11.8445 133.806 11.5634 133.932C11.286 134.058 11.0418 134.232 10.831 134.454C10.6201 134.675 10.4537 134.931 10.3316 135.219C10.2132 135.504 10.154 135.806 10.154 136.124C10.154 136.549 10.2521 136.943 10.4481 137.306C10.6479 137.668 10.9197 137.96 11.2638 138.182C11.6115 138.4 12.0036 138.51 12.4401 138.51ZM20.0736 138.243L19.9904 138.848C19.9349 139.292 19.8406 139.754 19.7074 140.235C19.578 140.72 19.4429 141.169 19.3024 141.584C19.1655 141.998 19.0527 142.327 18.9639 142.571H17.7876C17.8357 142.342 17.9023 142.031 17.9873 141.639C18.0724 141.251 18.1556 140.816 18.237 140.335C18.3184 139.854 18.3794 139.364 18.4201 138.865L18.4756 138.243H20.0736ZM26.0357 128.278C26.5424 128.282 27.0418 128.374 27.5338 128.555C28.0258 128.737 28.4697 129.032 28.8655 129.443C29.265 129.854 29.5831 130.409 29.8198 131.108C30.0603 131.803 30.1823 132.669 30.186 133.704C30.186 134.7 30.0862 135.585 29.8864 136.362C29.6867 137.135 29.4 137.788 29.0264 138.321C28.6565 138.854 28.207 139.259 27.6781 139.536C27.1491 139.814 26.5535 139.952 25.8914 139.952C25.2145 139.952 24.6134 139.819 24.0881 139.553C23.5628 139.286 23.1356 138.918 22.8063 138.449C22.4771 137.975 22.2718 137.431 22.1904 136.817H23.8828C23.9938 137.306 24.2194 137.701 24.5597 138.005C24.9037 138.304 25.3476 138.454 25.8914 138.454C26.7237 138.454 27.3729 138.092 27.839 137.367C28.3051 136.638 28.5399 135.621 28.5436 134.315H28.4549C28.2625 134.633 28.0221 134.907 27.7335 135.136C27.4487 135.365 27.1287 135.543 26.7736 135.669C26.4185 135.794 26.0394 135.857 25.6362 135.857C24.9814 135.857 24.3859 135.696 23.8495 135.375C23.3131 135.053 22.8859 134.611 22.5677 134.048C22.2496 133.486 22.0906 132.844 22.0906 132.123C22.0906 131.405 22.2533 130.754 22.5788 130.17C22.9081 129.586 23.3668 129.123 23.9549 128.783C24.5468 128.439 25.2403 128.27 26.0357 128.278ZM26.0412 129.721C25.6084 129.721 25.2182 129.828 24.8704 130.042C24.5264 130.253 24.2545 130.54 24.0548 130.902C23.855 131.261 23.7552 131.661 23.7552 132.101C23.7552 132.541 23.8513 132.941 24.0437 133.299C24.2397 133.655 24.5061 133.938 24.8427 134.148C25.183 134.355 25.5714 134.459 26.0079 134.459C26.3334 134.459 26.6368 134.396 26.9179 134.27C27.199 134.145 27.445 133.971 27.6559 133.749C27.8667 133.523 28.0313 133.268 28.1497 132.983C28.2681 132.698 28.3272 132.399 28.3272 132.084C28.3272 131.666 28.2274 131.278 28.0276 130.919C27.8316 130.56 27.5615 130.272 27.2175 130.053C26.8735 129.831 26.4814 129.721 26.0412 129.721ZM36.1467 139.952C35.3847 139.952 34.704 139.821 34.1048 139.558C33.5092 139.296 33.0376 138.931 32.6899 138.465C32.3459 137.995 32.1609 137.452 32.135 136.834H33.8773C33.8995 137.171 34.0123 137.463 34.2158 137.711C34.4229 137.955 34.6929 138.143 35.0259 138.277C35.3588 138.41 35.7287 138.476 36.1356 138.476C36.5832 138.476 36.979 138.399 37.323 138.243C37.6707 138.088 37.9426 137.871 38.1386 137.594C38.3347 137.313 38.4327 136.989 38.4327 136.623C38.4327 136.242 38.3347 135.907 38.1386 135.619C37.9463 135.327 37.6633 135.097 37.2897 134.931C36.9198 134.764 36.4722 134.681 35.9469 134.681H34.987V133.283H35.9469C36.3686 133.283 36.7385 133.207 37.0567 133.055C37.3785 132.904 37.63 132.693 37.8113 132.423C37.9925 132.149 38.0832 131.829 38.0832 131.463C38.0832 131.111 38.0036 130.806 37.8446 130.547C37.6892 130.285 37.4673 130.079 37.1787 129.931C36.8939 129.783 36.5573 129.709 36.1689 129.709C35.799 129.709 35.4531 129.778 35.1313 129.915C34.8132 130.048 34.5542 130.24 34.3545 130.492C34.1547 130.74 34.0474 131.037 34.0326 131.385H32.3736C32.3921 130.771 32.5734 130.231 32.9174 129.765C33.2651 129.299 33.7238 128.934 34.2934 128.672C34.8631 128.409 35.4956 128.278 36.1911 128.278C36.9198 128.278 37.5486 128.42 38.0776 128.705C38.6103 128.986 39.0209 129.362 39.3094 129.831C39.6016 130.301 39.7459 130.815 39.7422 131.374C39.7459 132.01 39.5684 132.55 39.2095 132.994C38.8544 133.438 38.3809 133.736 37.7891 133.888V133.976C38.5437 134.091 39.1282 134.391 39.5425 134.875C39.9605 135.36 40.1676 135.961 40.1639 136.679C40.1676 137.304 39.9937 137.864 39.6423 138.36C39.2946 138.855 38.8193 139.246 38.2163 139.531C37.6134 139.812 36.9235 139.952 36.1467 139.952ZM46.2175 139.986C45.3408 139.982 44.5917 139.751 43.9703 139.292C43.3488 138.833 42.8735 138.166 42.5443 137.289C42.2151 136.412 42.0504 135.356 42.0504 134.121C42.0504 132.889 42.2151 131.836 42.5443 130.963C42.8772 130.09 43.3544 129.425 43.9758 128.966C44.601 128.507 45.3482 128.278 46.2175 128.278C47.0868 128.278 47.8321 128.509 48.4536 128.971C49.075 129.43 49.5504 130.096 49.8796 130.969C50.2125 131.838 50.379 132.889 50.379 134.121C50.379 135.36 50.2144 136.418 49.8851 137.294C49.5559 138.167 49.0806 138.835 48.4591 139.297C47.8377 139.756 47.0905 139.986 46.2175 139.986ZM46.2175 138.504C46.9869 138.504 47.588 138.129 48.0208 137.378C48.4573 136.627 48.6755 135.541 48.6755 134.121C48.6755 133.177 48.5757 132.38 48.3759 131.729C48.1799 131.074 47.8969 130.579 47.527 130.242C47.1608 129.902 46.7243 129.732 46.2175 129.732C45.4518 129.732 44.8507 130.109 44.4142 130.864C43.9777 131.618 43.7576 132.704 43.7539 134.121C43.7539 135.068 43.8519 135.868 44.048 136.523C44.2477 137.174 44.5307 137.668 44.8969 138.005C45.2631 138.338 45.7033 138.504 46.2175 138.504ZM53.0506 139.902C52.7473 139.902 52.4865 139.795 52.2683 139.58C52.05 139.362 51.9409 139.1 51.9409 138.793C51.9409 138.489 52.05 138.23 52.2683 138.016C52.4865 137.798 52.7473 137.688 53.0506 137.688C53.354 137.688 53.6148 137.798 53.833 138.016C54.0513 138.23 54.1604 138.489 54.1604 138.793C54.1604 138.996 54.1086 139.183 54.005 139.353C53.9051 139.519 53.772 139.653 53.6055 139.752C53.4391 139.852 53.2541 139.902 53.0506 139.902ZM56.3604 139.797V138.554L60.2056 134.57C60.6162 134.137 60.9547 133.758 61.221 133.433C61.4911 133.103 61.6927 132.791 61.8258 132.495C61.959 132.199 62.0256 131.884 62.0256 131.552C62.0256 131.174 61.9368 130.849 61.7593 130.575C61.5817 130.298 61.3394 130.085 61.0324 129.937C60.7254 129.785 60.3795 129.709 59.9948 129.709C59.5879 129.709 59.2328 129.793 58.9294 129.959C58.6261 130.126 58.3931 130.36 58.2303 130.664C58.0676 130.967 57.9862 131.322 57.9862 131.729H56.3493C56.3493 131.037 56.5084 130.433 56.8265 129.915C57.1446 129.397 57.5811 128.996 58.136 128.711C58.6909 128.422 59.3215 128.278 60.0281 128.278C60.742 128.278 61.3708 128.42 61.9146 128.705C62.4621 128.986 62.8893 129.371 63.1964 129.859C63.5034 130.344 63.6569 130.891 63.6569 131.502C63.6569 131.923 63.5774 132.336 63.4183 132.739C63.2629 133.142 62.9911 133.592 62.6027 134.087C62.2142 134.579 61.6742 135.177 60.9824 135.88L58.7241 138.243V138.326H63.84V139.797H56.3604ZM65.9429 139.797V138.554L69.7882 134.57C70.1988 134.137 70.5372 133.758 70.8036 133.433C71.0736 133.103 71.2752 132.791 71.4084 132.495C71.5415 132.199 71.6081 131.884 71.6081 131.552C71.6081 131.174 71.5193 130.849 71.3418 130.575C71.1642 130.298 70.9219 130.085 70.6149 129.937C70.3079 129.785 69.962 129.709 69.5773 129.709C69.1704 129.709 68.8153 129.793 68.512 129.959C68.2086 130.126 67.9756 130.36 67.8128 130.664C67.6501 130.967 67.5687 131.322 67.5687 131.729H65.9318C65.9318 131.037 66.0909 130.433 66.409 129.915C66.7271 129.397 67.1636 128.996 67.7185 128.711C68.2734 128.422 68.9041 128.278 69.6106 128.278C70.3245 128.278 70.9534 128.42 71.4971 128.705C72.0446 128.986 72.4718 129.371 72.7789 129.859C73.0859 130.344 73.2394 130.891 73.2394 131.502C73.2394 131.923 73.1599 132.336 73.0008 132.739C72.8455 133.142 72.5736 133.592 72.1852 134.087C71.7968 134.579 71.2567 135.177 70.565 135.88L68.3067 138.243V138.326H73.4225V139.797H65.9429Z" fill="#44475B"/>
<rect x="129" y="119.982" width="578.8" height="4.63" rx="2.315" fill="#121212" fill-opacity="0.3"/>
<rect x="129" y="119.982" width="578.8" height="4.63" rx="2.315" fill="url(#paint1_linear_1_1124)"/>
<path d="M770.472 107.934C769.897 107.934 769.38 107.82 768.92 107.591C768.46 107.363 768.092 107.05 767.814 106.652C767.537 106.254 767.385 105.8 767.359 105.291H768.534C768.579 105.745 768.785 106.12 769.15 106.417C769.519 106.71 769.959 106.857 770.472 106.857C770.883 106.857 771.248 106.761 771.568 106.569C771.891 106.376 772.144 106.112 772.326 105.776C772.512 105.436 772.605 105.053 772.605 104.626C772.605 104.188 772.509 103.799 772.317 103.456C772.127 103.11 771.866 102.838 771.534 102.639C771.201 102.44 770.821 102.339 770.393 102.335C770.087 102.332 769.772 102.379 769.449 102.477C769.126 102.572 768.86 102.694 768.651 102.844L767.516 102.707L768.123 97.7741H773.33V98.8508H769.141L768.788 101.807H768.847C769.052 101.644 769.31 101.508 769.62 101.401C769.93 101.293 770.253 101.239 770.589 101.239C771.203 101.239 771.749 101.386 772.229 101.679C772.711 101.97 773.09 102.368 773.364 102.874C773.641 103.379 773.78 103.957 773.78 104.606C773.78 105.246 773.636 105.816 773.349 106.319C773.065 106.818 772.674 107.213 772.175 107.503C771.676 107.79 771.108 107.934 770.472 107.934ZM775.724 107.797V106.916L779.032 103.294C779.421 102.87 779.74 102.502 779.992 102.188C780.243 101.872 780.429 101.575 780.549 101.298C780.673 101.017 780.735 100.724 780.735 100.417C780.735 100.064 780.651 99.7594 780.481 99.5017C780.315 99.244 780.086 99.0449 779.796 98.9046C779.505 98.7643 779.179 98.6942 778.817 98.6942C778.432 98.6942 778.096 98.7741 777.809 98.934C777.525 99.0906 777.305 99.3108 777.148 99.5947C776.995 99.8785 776.918 100.211 776.918 100.593H775.763C775.763 100.006 775.899 99.4903 776.169 99.0466C776.44 98.6028 776.809 98.257 777.275 98.0091C777.745 97.7611 778.272 97.6371 778.856 97.6371C779.443 97.6371 779.964 97.7611 780.417 98.0091C780.871 98.257 781.226 98.5914 781.484 99.0123C781.742 99.4332 781.871 99.9014 781.871 100.417C781.871 100.786 781.804 101.146 781.67 101.498C781.54 101.848 781.311 102.237 780.985 102.668C780.662 103.095 780.213 103.617 779.639 104.234L777.388 106.642V106.72H782.047V107.797H775.724ZM786.065 107.797L783.324 97.7741H784.558L786.652 105.937H786.75L788.884 97.7741H790.254L792.388 105.937H792.486L794.58 97.7741H795.814L793.073 107.797H791.82L789.608 99.81H789.53L787.318 107.797H786.065ZM801.202 107.797V97.7741H802.415V102.237H807.76V97.7741H808.973V107.797H807.76V103.314H802.415V107.797H801.202ZM811.247 107.797V100.28H812.401V107.797H811.247ZM811.834 99.027C811.609 99.027 811.415 98.9503 811.251 98.797C811.092 98.6436 811.012 98.4593 811.012 98.244C811.012 98.0286 811.092 97.8443 811.251 97.691C811.415 97.5376 811.609 97.4609 811.834 97.4609C812.059 97.4609 812.251 97.5376 812.411 97.691C812.574 97.8443 812.656 98.0286 812.656 98.244C812.656 98.4593 812.574 98.6436 812.411 98.797C812.251 98.9503 812.059 99.027 811.834 99.027ZM817.551 110.772C816.993 110.772 816.514 110.701 816.112 110.557C815.711 110.417 815.377 110.231 815.109 109.999C814.845 109.771 814.634 109.526 814.478 109.265L815.398 108.619C815.502 108.756 815.634 108.913 815.794 109.089C815.954 109.268 816.173 109.423 816.45 109.554C816.731 109.688 817.098 109.754 817.551 109.754C818.158 109.754 818.659 109.608 819.054 109.314C819.448 109.02 819.646 108.56 819.646 107.934V106.407H819.548C819.463 106.544 819.342 106.714 819.186 106.916C819.032 107.115 818.81 107.293 818.52 107.449C818.233 107.603 817.845 107.679 817.355 107.679C816.749 107.679 816.204 107.536 815.721 107.249C815.241 106.962 814.861 106.544 814.58 105.996C814.303 105.448 814.165 104.782 814.165 103.999C814.165 103.229 814.3 102.559 814.571 101.988C814.842 101.414 815.218 100.97 815.701 100.657C816.184 100.34 816.742 100.182 817.375 100.182C817.864 100.182 818.253 100.264 818.54 100.427C818.83 100.587 819.052 100.769 819.205 100.975C819.362 101.177 819.483 101.343 819.567 101.474H819.685V100.28H820.801V108.012C820.801 108.658 820.654 109.183 820.36 109.588C820.07 109.996 819.678 110.294 819.186 110.484C818.696 110.676 818.151 110.772 817.551 110.772ZM817.512 106.642C817.975 106.642 818.367 106.536 818.686 106.324C819.006 106.112 819.249 105.807 819.416 105.409C819.582 105.011 819.665 104.534 819.665 103.98C819.665 103.438 819.584 102.96 819.421 102.546C819.257 102.131 819.016 101.807 818.696 101.572C818.377 101.337 817.982 101.219 817.512 101.219C817.023 101.219 816.615 101.343 816.288 101.591C815.965 101.839 815.722 102.172 815.559 102.59C815.399 103.007 815.319 103.471 815.319 103.98C815.319 104.502 815.401 104.963 815.564 105.365C815.731 105.763 815.975 106.076 816.298 106.304C816.625 106.529 817.029 106.642 817.512 106.642ZM824.07 103.275V107.797H822.915V97.7741H824.07V101.454H824.168C824.344 101.066 824.608 100.758 824.96 100.529C825.316 100.298 825.789 100.182 826.38 100.182C826.892 100.182 827.341 100.285 827.726 100.49C828.111 100.693 828.409 101.004 828.621 101.425C828.836 101.843 828.944 102.374 828.944 103.02V107.797H827.789V103.099C827.789 102.502 827.634 102.04 827.324 101.714C827.018 101.384 826.592 101.219 826.047 101.219C825.668 101.219 825.329 101.299 825.029 101.459C824.732 101.619 824.497 101.852 824.324 102.159C824.155 102.466 824.07 102.838 824.07 103.275Z" fill="#44475B"/>
<path d="M754.82 137.577V136.19L759.73 128.433H760.824V130.475H760.13L756.618 136.035V136.124H763.348V137.577H754.82ZM760.208 139.797V137.156L760.219 136.523V128.433H761.845V139.797H760.208ZM769.061 128.278C769.567 128.282 770.067 128.374 770.559 128.555C771.051 128.737 771.495 129.032 771.89 129.443C772.29 129.854 772.608 130.409 772.845 131.108C773.085 131.803 773.207 132.669 773.211 133.704C773.211 134.7 773.111 135.585 772.911 136.362C772.712 137.135 772.425 137.788 772.051 138.321C771.681 138.854 771.232 139.259 770.703 139.536C770.174 139.814 769.578 139.952 768.916 139.952C768.239 139.952 767.638 139.819 767.113 139.553C766.588 139.286 766.16 138.918 765.831 138.449C765.502 137.975 765.297 137.431 765.215 136.817H766.908C767.019 137.306 767.244 137.701 767.585 138.005C767.929 138.304 768.373 138.454 768.916 138.454C769.749 138.454 770.398 138.092 770.864 137.367C771.33 136.638 771.565 135.621 771.569 134.315H771.48C771.287 134.633 771.047 134.907 770.758 135.136C770.474 135.365 770.154 135.543 769.799 135.669C769.443 135.794 769.064 135.857 768.661 135.857C768.006 135.857 767.411 135.696 766.874 135.375C766.338 135.053 765.911 134.611 765.593 134.048C765.275 133.486 765.115 132.844 765.115 132.123C765.115 131.405 765.278 130.754 765.604 130.17C765.933 129.586 766.392 129.123 766.98 128.783C767.572 128.439 768.265 128.27 769.061 128.278ZM769.066 129.721C768.633 129.721 768.243 129.828 767.895 130.042C767.551 130.253 767.279 130.54 767.08 130.902C766.88 131.261 766.78 131.661 766.78 132.101C766.78 132.541 766.876 132.941 767.069 133.299C767.265 133.655 767.531 133.938 767.868 134.148C768.208 134.355 768.596 134.459 769.033 134.459C769.358 134.459 769.662 134.396 769.943 134.27C770.224 134.145 770.47 133.971 770.681 133.749C770.892 133.523 771.056 133.268 771.175 132.983C771.293 132.698 771.352 132.399 771.352 132.084C771.352 131.666 771.252 131.278 771.053 130.919C770.856 130.56 770.586 130.272 770.242 130.053C769.898 129.831 769.506 129.721 769.066 129.721ZM776.984 138.243L776.901 138.848C776.845 139.292 776.751 139.754 776.618 140.235C776.488 140.72 776.353 141.169 776.213 141.584C776.076 141.998 775.963 142.327 775.874 142.571H774.698C774.746 142.342 774.813 142.031 774.898 141.639C774.983 141.251 775.066 140.816 775.147 140.335C775.229 139.854 775.29 139.364 775.331 138.865L775.386 138.243H776.984ZM779.398 139.797L784.358 129.987V129.904H778.621V128.433H786.134V129.954L781.19 139.797H779.398ZM786.909 137.577V136.19L791.82 128.433H792.913V130.475H792.219L788.707 136.035V136.124H795.437V137.577H786.909ZM792.297 139.797V137.156L792.308 136.523V128.433H793.934V139.797H792.297ZM801.327 139.952C800.565 139.952 799.885 139.821 799.285 139.558C798.69 139.296 798.218 138.931 797.871 138.465C797.527 137.995 797.342 137.452 797.316 136.834H799.058C799.08 137.171 799.193 137.463 799.396 137.711C799.604 137.955 799.874 138.143 800.207 138.277C800.539 138.41 800.909 138.476 801.316 138.476C801.764 138.476 802.16 138.399 802.504 138.243C802.851 138.088 803.123 137.871 803.319 137.594C803.515 137.313 803.613 136.989 803.613 136.623C803.613 136.242 803.515 135.907 803.319 135.619C803.127 135.327 802.844 135.097 802.47 134.931C802.1 134.764 801.653 134.681 801.128 134.681H800.168V133.283H801.128C801.549 133.283 801.919 133.207 802.237 133.055C802.559 132.904 802.811 132.693 802.992 132.423C803.173 132.149 803.264 131.829 803.264 131.463C803.264 131.111 803.184 130.806 803.025 130.547C802.87 130.285 802.648 130.079 802.359 129.931C802.075 129.783 801.738 129.709 801.35 129.709C800.98 129.709 800.634 129.778 800.312 129.915C799.994 130.048 799.735 130.24 799.535 130.492C799.335 130.74 799.228 131.037 799.213 131.385H797.554C797.573 130.771 797.754 130.231 798.098 129.765C798.446 129.299 798.904 128.934 799.474 128.672C800.044 128.409 800.676 128.278 801.372 128.278C802.1 128.278 802.729 128.42 803.258 128.705C803.791 128.986 804.202 129.362 804.49 129.831C804.782 130.301 804.927 130.815 804.923 131.374C804.927 132.01 804.749 132.55 804.39 132.994C804.035 133.438 803.562 133.736 802.97 133.888V133.976C803.724 134.091 804.309 134.391 804.723 134.875C805.141 135.36 805.348 135.961 805.345 136.679C805.348 137.304 805.174 137.864 804.823 138.36C804.475 138.855 804 139.246 803.397 139.531C802.794 139.812 802.104 139.952 801.327 139.952ZM808.222 139.902C807.918 139.902 807.657 139.795 807.439 139.58C807.221 139.362 807.112 139.1 807.112 138.793C807.112 138.489 807.221 138.23 807.439 138.016C807.657 137.798 807.918 137.688 808.222 137.688C808.525 137.688 808.786 137.798 809.004 138.016C809.222 138.23 809.331 138.489 809.331 138.793C809.331 138.996 809.279 139.183 809.176 139.353C809.076 139.519 808.943 139.653 808.776 139.752C808.61 139.852 808.425 139.902 808.222 139.902ZM814.989 139.952C814.194 139.952 813.491 139.815 812.881 139.542C812.274 139.268 811.799 138.891 811.455 138.41C811.111 137.929 810.941 137.381 810.945 136.767C810.941 136.286 811.039 135.844 811.239 135.441C811.442 135.034 811.718 134.696 812.065 134.426C812.413 134.152 812.801 133.978 813.231 133.904V133.838C812.665 133.701 812.211 133.397 811.871 132.928C811.531 132.458 811.363 131.918 811.366 131.307C811.363 130.727 811.516 130.209 811.827 129.754C812.141 129.295 812.572 128.934 813.12 128.672C813.667 128.409 814.29 128.278 814.989 128.278C815.681 128.278 816.299 128.411 816.843 128.677C817.39 128.94 817.821 129.301 818.136 129.759C818.45 130.214 818.609 130.73 818.613 131.307C818.609 131.918 818.435 132.458 818.091 132.928C817.747 133.397 817.3 133.701 816.748 133.838V133.904C817.174 133.978 817.557 134.152 817.897 134.426C818.241 134.696 818.515 135.034 818.718 135.441C818.925 135.844 819.031 136.286 819.034 136.767C819.031 137.381 818.857 137.929 818.513 138.41C818.169 138.891 817.692 139.268 817.081 139.542C816.475 139.815 815.777 139.952 814.989 139.952ZM814.989 138.548C815.459 138.548 815.866 138.471 816.21 138.315C816.554 138.156 816.821 137.936 817.009 137.655C817.198 137.37 817.294 137.037 817.298 136.656C817.294 136.261 817.19 135.911 816.987 135.608C816.787 135.304 816.515 135.066 816.171 134.892C815.827 134.718 815.433 134.631 814.989 134.631C814.542 134.631 814.144 134.718 813.797 134.892C813.449 135.066 813.175 135.304 812.975 135.608C812.776 135.911 812.678 136.261 812.681 136.656C812.678 137.037 812.768 137.37 812.953 137.655C813.142 137.936 813.41 138.156 813.758 138.315C814.105 138.471 814.516 138.548 814.989 138.548ZM814.989 133.261C815.367 133.261 815.702 133.185 815.994 133.033C816.286 132.881 816.515 132.671 816.682 132.401C816.852 132.13 816.939 131.814 816.943 131.452C816.939 131.097 816.854 130.786 816.687 130.52C816.525 130.253 816.297 130.048 816.005 129.904C815.713 129.756 815.374 129.682 814.989 129.682C814.597 129.682 814.253 129.756 813.957 129.904C813.665 130.048 813.438 130.253 813.275 130.52C813.112 130.786 813.033 131.097 813.036 131.452C813.033 131.814 813.114 132.13 813.281 132.401C813.447 132.671 813.676 132.881 813.969 133.033C814.264 133.185 814.605 133.261 814.989 133.261ZM824.978 139.952C824.216 139.952 823.536 139.821 822.937 139.558C822.341 139.296 821.869 138.931 821.522 138.465C821.178 137.995 820.993 137.452 820.967 136.834H822.709C822.731 137.171 822.844 137.463 823.048 137.711C823.255 137.955 823.525 138.143 823.858 138.277C824.191 138.41 824.56 138.476 824.967 138.476C825.415 138.476 825.811 138.399 826.155 138.243C826.502 138.088 826.774 137.871 826.97 137.594C827.166 137.313 827.265 136.989 827.265 136.623C827.265 136.242 827.166 135.907 826.97 135.619C826.778 135.327 826.495 135.097 826.121 134.931C825.752 134.764 825.304 134.681 824.779 134.681H823.819V133.283H824.779C825.2 133.283 825.57 133.207 825.888 133.055C826.21 132.904 826.462 132.693 826.643 132.423C826.824 132.149 826.915 131.829 826.915 131.463C826.915 131.111 826.835 130.806 826.676 130.547C826.521 130.285 826.299 130.079 826.011 129.931C825.726 129.783 825.389 129.709 825.001 129.709C824.631 129.709 824.285 129.778 823.963 129.915C823.645 130.048 823.386 130.24 823.186 130.492C822.986 130.74 822.879 131.037 822.864 131.385H821.205C821.224 130.771 821.405 130.231 821.749 129.765C822.097 129.299 822.556 128.934 823.125 128.672C823.695 128.409 824.327 128.278 825.023 128.278C825.752 128.278 826.38 128.42 826.909 128.705C827.442 128.986 827.853 129.362 828.141 129.831C828.433 130.301 828.578 130.815 828.574 131.374C828.578 132.01 828.4 132.55 828.041 132.994C827.686 133.438 827.213 133.736 826.621 133.888V133.976C827.375 134.091 827.96 134.391 828.374 134.875C828.792 135.36 828.999 135.961 828.996 136.679C828.999 137.304 828.826 137.864 828.474 138.36C828.126 138.855 827.651 139.246 827.048 139.531C826.445 139.812 825.755 139.952 824.978 139.952Z" fill="#44475B"/>
<g clip-path="url(#clip0_1_1124)">
<rect x="573.65" y="41.1369" width="8.00001" height="8.00001" transform="rotate(45 573.65 41.1369)" fill="black"/>
</g>
<path d="M540.013 69.7881V68.6328C538.386 68.4824 537.039 67.4912 536.984 65.9053V65.8984L538.174 65.8916V65.9053C538.297 66.7529 538.823 67.4297 540.013 67.5596V64.2715L539.855 64.2305C538.153 63.8203 537.237 63.0615 537.237 61.7217V61.708C537.237 60.2451 538.393 59.2471 540.013 59.0967V57.9414H540.833V59.0967C542.412 59.2402 543.636 60.2656 543.69 61.7695V61.7764L542.501 61.7832V61.7695C542.412 60.8535 541.756 60.2861 540.833 60.1699V63.3076L541.045 63.3555C542.802 63.7793 543.786 64.5039 543.786 65.9326V65.9463C543.786 67.5869 542.446 68.5098 540.833 68.6396V69.7881H540.013ZM538.427 61.6396C538.427 62.3027 538.837 62.8223 540.013 63.1094V60.1699C538.974 60.3135 538.427 60.9697 538.427 61.626V61.6396ZM540.874 64.4766L540.833 64.4697V67.5732C542.104 67.4707 542.597 66.8281 542.597 66.042V66.0283C542.597 65.2832 542.228 64.8047 540.874 64.4766ZM550.424 68.7969V66.7529H545.618V65.6318C546.951 63.3965 548.462 60.9902 549.843 58.9326H551.627V65.6523H553.028V66.7529H551.627V68.7969H550.424ZM546.876 65.6592H550.431V60.0742H550.349C549.241 61.7285 547.949 63.7656 546.876 65.5771V65.6592ZM558.299 68.9609C556.207 68.9609 554.717 67.7852 554.717 66.1309V66.1172C554.717 64.9004 555.571 63.8887 556.836 63.5947V63.5674C555.756 63.2324 555.072 62.4121 555.072 61.373V61.3594C555.072 59.8691 556.433 58.7686 558.299 58.7686C560.165 58.7686 561.525 59.8691 561.525 61.3594V61.373C561.525 62.4121 560.842 63.2324 559.762 63.5674V63.5947C561.026 63.8887 561.881 64.9004 561.881 66.1172V66.1309C561.881 67.7852 560.391 68.9609 558.299 68.9609ZM558.299 63.1094C559.488 63.1094 560.302 62.4326 560.302 61.4756V61.4619C560.302 60.5049 559.488 59.8281 558.299 59.8281C557.109 59.8281 556.296 60.5049 556.296 61.4619V61.4756C556.296 62.4326 557.109 63.1094 558.299 63.1094ZM558.299 67.8877C559.659 67.8877 560.63 67.1221 560.63 66.0557V66.042C560.63 64.9619 559.666 64.1895 558.299 64.1895C556.932 64.1895 555.968 64.9619 555.968 66.042V66.0557C555.968 67.1221 556.938 67.8877 558.299 67.8877ZM563.098 71.3057L563.692 67.416H565.053L563.979 71.3057H563.098ZM570.487 69.0293C568.683 69.0293 566.775 67.7578 566.775 64.0459V64.0322C566.775 60.6689 568.177 58.7002 570.569 58.7002C572.224 58.7002 573.454 59.6709 573.789 61.127L573.81 61.2158H572.572L572.545 61.1406C572.244 60.3135 571.554 59.8008 570.556 59.8008C568.765 59.8008 568.033 61.5508 567.958 63.6084C567.951 63.6836 567.951 63.7656 567.951 63.8408H568.081C568.443 63.0342 569.373 62.3164 570.706 62.3164C572.559 62.3164 573.939 63.7246 573.939 65.6182V65.6318C573.939 67.6006 572.477 69.0293 570.487 69.0293ZM568.245 65.6182C568.245 66.917 569.223 67.9424 570.474 67.9424C571.711 67.9424 572.702 66.9375 572.702 65.6592V65.6455C572.702 64.333 571.772 63.3896 570.494 63.3896C569.216 63.3896 568.245 64.3262 568.245 65.6113V65.6182ZM579.271 68.9609C577.234 68.9609 575.915 67.8262 575.785 66.2676L575.778 66.1855H576.961L576.968 66.2539C577.063 67.2246 577.959 67.8945 579.271 67.8945C580.563 67.8945 581.445 67.1699 581.445 66.124V66.1104C581.445 64.9004 580.577 64.2236 579.196 64.2236H577.959V63.1846H579.142C580.317 63.1846 581.138 62.46 581.138 61.4756V61.4619C581.138 60.4297 580.461 59.835 579.258 59.835C578.096 59.835 577.269 60.4502 577.166 61.4482L577.159 61.5166H575.977L575.983 61.4482C576.141 59.8418 577.412 58.7686 579.258 58.7686C581.138 58.7686 582.375 59.8145 582.375 61.3115V61.3252C582.375 62.542 581.514 63.376 580.283 63.6357V63.6631C581.719 63.7861 582.696 64.6816 582.696 66.083V66.0967C582.696 67.7441 581.247 68.9609 579.271 68.9609ZM585.103 68.7969L589.532 60.1289V60.0332H584.255V58.9326H590.783V60.0742L586.395 68.7969H585.103ZM592.137 68.8652C591.651 68.8652 591.248 68.4619 591.248 67.9766C591.248 67.4844 591.651 67.0879 592.137 67.0879C592.629 67.0879 593.025 67.4844 593.025 67.9766C593.025 68.4619 592.629 68.8652 592.137 68.8652ZM598.207 68.9609C596.115 68.9609 594.625 67.7852 594.625 66.1309V66.1172C594.625 64.9004 595.479 63.8887 596.744 63.5947V63.5674C595.664 63.2324 594.98 62.4121 594.98 61.373V61.3594C594.98 59.8691 596.341 58.7686 598.207 58.7686C600.073 58.7686 601.434 59.8691 601.434 61.3594V61.373C601.434 62.4121 600.75 63.2324 599.67 63.5674V63.5947C600.935 63.8887 601.789 64.9004 601.789 66.1172V66.1309C601.789 67.7852 600.299 68.9609 598.207 68.9609ZM598.207 63.1094C599.396 63.1094 600.21 62.4326 600.21 61.4756V61.4619C600.21 60.5049 599.396 59.8281 598.207 59.8281C597.018 59.8281 596.204 60.5049 596.204 61.4619V61.4756C596.204 62.4326 597.018 63.1094 598.207 63.1094ZM598.207 67.8877C599.567 67.8877 600.538 67.1221 600.538 66.0557V66.042C600.538 64.9619 599.574 64.1895 598.207 64.1895C596.84 64.1895 595.876 64.9619 595.876 66.042V66.0557C595.876 67.1221 596.847 67.8877 598.207 67.8877ZM607.135 68.9609C605.098 68.9609 603.778 67.8262 603.648 66.2676L603.642 66.1855H604.824L604.831 66.2539C604.927 67.2246 605.822 67.8945 607.135 67.8945C608.427 67.8945 609.309 67.1699 609.309 66.124V66.1104C609.309 64.9004 608.44 64.2236 607.06 64.2236H605.822V63.1846H607.005C608.181 63.1846 609.001 62.46 609.001 61.4756V61.4619C609.001 60.4297 608.324 59.835 607.121 59.835C605.959 59.835 605.132 60.4502 605.029 61.4482L605.022 61.5166H603.84L603.847 61.4482C604.004 59.8418 605.275 58.7686 607.121 58.7686C609.001 58.7686 610.238 59.8145 610.238 61.3115V61.3252C610.238 62.542 609.377 63.376 608.146 63.6357V63.6631C609.582 63.7861 610.56 64.6816 610.56 66.083V66.0967C610.56 67.7441 609.11 68.9609 607.135 68.9609Z" fill="#44475B"/>
<defs>
<linearGradient id="paint0_linear_1_1124" x1="124" y1="33.9819" x2="707" y2="33.9819" gradientUnits="userSpaceOnUse">
<stop stop-color="#FF4949"/>
<stop offset="0.153341" stop-color="#FF4E11"/>
<stop offset="0.304385" stop-color="#FC870A"/>
<stop offset="0.48668" stop-color="#FFAF11"/>
<stop offset="0.627308" stop-color="#C2CB21"/>
<stop offset="1" stop-color="#11EB68"/>
</linearGradient>
<linearGradient id="paint1_linear_1_1124" x1="129" y1="119.982" x2="707.999" y2="119.982" gradientUnits="userSpaceOnUse">
<stop stop-color="#FF4949"/>
<stop offset="0.153341" stop-color="#FF4E11"/>
<stop offset="0.304385" stop-color="#FC870A"/>
<stop offset="0.48668" stop-color="#FFAF11"/>
<stop offset="0.627308" stop-color="#C2CB21"/>
<stop offset="1" stop-color="#11EB68"/>
</linearGradient>
<clipPath id="clip0_1_1124">
<rect width="12" height="8" fill="white" transform="translate(568 38.7969)"/>
</clipPath>
</defs>
</svg>
